<svg width="80" height="80" viewBox="0 0 80 80" fill="none" xmlns="http://www.w3.org/2000/svg">
<path d="M79.8164 51.8738L76.5195 45.6733C76.1136 44.9099 75.1659 44.6202 74.4022 45.0259C73.6387 45.4319 73.3489 46.3799 73.7548 47.1433L76.3167 51.9614L66.5428 57.1583L55.0141 35.4756L64.788 30.2788L67.0298 34.4952C67.4358 35.2586 68.3837 35.5484 69.1472 35.1425C69.9106 34.7366 70.2005 33.7886 69.7945 33.0252L66.8176 27.4264C66.6227 27.0599 66.2902 26.7856 65.8931 26.6642C65.4961 26.543 65.067 26.5842 64.7003 26.7791L53.5497 32.708V29.6502C53.5497 26.4906 52.1589 23.5327 49.6336 21.3208C48.3605 20.2058 46.8736 19.352 45.2576 18.7847C47.7426 17.1924 49.3944 14.4084 49.3944 11.2442C49.3944 6.30829 45.3786 2.29266 40.4428 2.29266C35.507 2.29266 31.4912 6.30829 31.4912 11.2442C31.4912 14.4083 33.1428 17.192 35.6277 18.7845C34.0103 19.3525 32.5222 20.2075 31.2486 21.3244C28.7255 23.5349 27.3361 26.4917 27.3361 29.6502V34.5891L15.2997 28.1891C14.9331 27.9941 14.5042 27.9527 14.1069 28.0742C13.7098 28.1956 13.3772 28.4697 13.1823 28.8364L0.183277 53.2839C-0.0117231 53.6505 -0.0529731 54.0795 0.0684332 54.4767C0.189839 54.8738 0.463902 55.2064 0.830621 55.4013L13.3692 62.0681C14.0253 62.4169 14.8608 62.2453 15.325 61.6659C15.552 61.3825 15.6995 61.0202 15.8692 60.7011C16.03 60.915 16.2122 61.1103 16.3914 61.3086C17.1542 62.1535 18.1798 62.6752 19.3022 62.797C19.3106 63.8844 19.7005 64.9725 20.4847 65.8411L20.7386 66.1222C21.5078 66.9739 22.5258 67.4689 23.5841 67.5999C23.5983 68.3113 23.7781 69.0161 24.1106 69.6455C24.3517 70.1016 24.6781 70.4845 25.0214 70.8644C25.7842 71.7092 26.8098 72.2309 27.9322 72.3528C27.9406 73.44 28.3305 74.5283 29.1147 75.3969C29.1147 75.4599 29.3225 75.627 29.3686 75.678C30.2752 76.6817 31.527 77.1922 32.7836 77.1922C33.8827 77.1922 34.9855 76.8014 35.8634 76.0086L37.2105 74.792C37.2555 74.7514 37.2987 74.7095 37.3419 74.6675L43.6662 77.3399C45.1123 77.9441 46.7977 77.796 48.1178 76.9499C48.9558 76.4136 49.6011 75.6452 49.9831 74.7291C50.2502 74.0906 50.3748 73.4172 50.3597 72.7458C51.1569 72.9017 51.9898 72.8524 52.7631 72.6034C54.1144 72.1697 55.2042 71.1702 55.7539 69.8594C56.068 69.108 56.1769 68.3217 56.1084 67.5622C57.9023 67.4005 59.4941 66.3774 60.1817 64.7335C60.4983 63.9753 60.5905 63.1478 60.4725 62.3366C60.5189 62.3377 60.5653 62.3397 60.6117 62.3397C62.2491 62.3325 63.7391 61.5069 64.62 60.1805C65.0698 60.8149 65.9428 61.0241 66.6309 60.6583L79.1695 53.9914C79.9325 53.5852 80.2223 52.6372 79.8164 51.8738ZM40.9123 41.7903C40.5864 41.6197 40.1978 41.5694 39.8391 41.6522L30.9806 43.6791C30.0103 43.8297 29.0905 43.1164 28.9591 42.1513C28.8472 41.3342 29.3016 40.5633 30.0655 40.2761L43.7172 35.1303C48.0908 33.5583 50.5367 35.1552 52.1758 36.8074L60.1578 51.8192L40.9123 41.7903ZM40.4428 5.42391C43.6523 5.42391 46.2633 8.03501 46.2633 11.2444C46.2633 14.4538 43.6522 17.0649 40.4428 17.0649C37.2334 17.0649 34.6223 14.4538 34.6223 11.2444C34.6223 8.03501 37.2333 5.42391 40.4428 5.42391ZM33.3123 23.6792C35.2059 22.0188 37.7362 21.1044 40.4381 21.1044H40.4442C43.1459 21.1044 45.6769 22.0178 47.5708 23.6766C49.4072 25.285 50.4186 27.4066 50.4186 29.6505V31.9392C48.0947 31.0669 45.5209 31.1524 42.6455 32.1883C42.6383 32.1909 42.6311 32.1936 42.6239 32.1963L30.4672 36.7786V29.6505C30.467 27.4074 31.4773 25.2869 33.3123 23.6792ZM13.4567 58.5686L3.68281 53.3717L15.2117 31.6889L24.9856 36.8858L13.4567 58.5686ZM18.715 59.2099C18.4678 58.9363 18.2217 58.6791 18.1281 58.3089C17.9956 57.7849 18.1652 57.2189 18.5667 56.8564L22.95 52.8977C23.2898 52.5906 23.7623 52.4597 24.212 52.5456C24.6072 52.6213 24.8883 52.8545 25.1494 53.1436C25.4028 53.4242 25.6019 53.7156 25.6455 54.1031C25.6978 54.5702 25.5195 55.0417 25.1708 55.3567L20.7875 59.3155C20.1941 59.8516 19.2508 59.8033 18.715 59.2099ZM23.0622 64.0234L22.8083 63.7424C22.2661 63.1419 22.3134 62.212 22.9139 61.6699L28.6395 56.4989C28.9719 56.1986 29.4333 56.0664 29.8744 56.1428C30.2811 56.2131 30.5711 56.4484 30.8389 56.745C31.1 57.0339 31.3014 57.3359 31.3373 57.7361C31.3783 58.1924 31.2006 58.6508 30.8603 58.9581C30.8603 58.9581 24.9337 64.2444 24.8559 64.3256C24.2736 64.6445 23.5262 64.5374 23.0622 64.0234ZM27.345 68.7655C27.1456 68.5447 26.9364 68.3361 26.8214 68.0558C26.6356 67.603 26.6942 67.0725 26.9722 66.67C27.0609 66.601 31.3444 62.7397 31.3444 62.7397C31.7445 62.5395 32.2252 62.5349 32.6292 62.7261C32.9098 62.8589 33.1056 63.0847 33.3078 63.3114C33.8522 63.9222 33.8627 64.8566 33.2367 65.4219L29.4177 68.8709C28.8239 69.4074 27.8809 69.3591 27.345 68.7655ZM33.7648 73.6847C33.4323 73.9849 32.9711 74.117 32.5298 74.0408C32.1231 73.9705 31.8331 73.7352 31.5653 73.4388C31.3042 73.1499 31.1028 72.8478 31.0669 72.4477C31.0259 71.9914 31.2036 71.533 31.5439 71.2256L32.8908 70.0092C33.4911 69.4669 34.4209 69.5142 34.9633 70.1147C35.1309 70.3003 35.3137 70.4788 35.4305 70.7025C35.6353 71.0953 35.6483 71.5703 35.4686 71.9752C35.4447 72.0172 33.7648 73.6847 33.7648 73.6847ZM62.17 58.1566C61.8131 59.0124 60.7959 59.4392 59.9377 59.0772L48.1859 54.0838C47.3903 53.7458 46.4711 54.1166 46.1328 54.9124C46.128 54.9238 46.1247 54.9353 46.1202 54.9467C46.1177 54.9522 46.1144 54.9572 46.1119 54.9628C45.7569 55.7513 46.1084 56.6781 46.8967 57.0331L55.8497 61.0638C55.8625 61.0695 55.8753 61.075 55.8883 61.0805C56.7708 61.4497 57.3897 62.243 57.3931 63.0097C57.3939 63.19 57.36 63.3638 57.2923 63.5256C56.9359 64.3775 55.6983 64.7066 54.5834 64.2491L49.6175 62.0127L45.652 60.2267C44.8295 59.8566 43.892 60.2717 43.552 61.0869C43.2183 61.8869 43.5425 62.8261 44.3614 63.1753L48.3586 64.8797L52.4192 66.7085C53.0131 67.2358 53.168 68.1317 52.7794 68.8255C52.3594 69.5753 51.4222 69.8989 50.6275 69.5722L44.3017 66.8438C43.508 66.5014 42.5866 66.8672 42.2442 67.6613C42.0019 68.2231 42.1156 68.848 42.4836 69.287C42.6358 69.5155 42.8486 69.7077 43.1147 69.8336L46.1306 71.2602C46.5264 71.4467 46.8502 71.6888 47.0494 72.0905C47.2647 72.5247 47.2845 73.0358 47.1072 73.4864C46.7658 74.3536 45.7506 74.8174 44.8786 74.4528L38.703 71.8433C38.7825 71.0497 38.657 70.24 38.3323 69.5109C38.0786 68.9413 37.7008 68.4741 37.2867 68.0156C36.9114 67.6002 36.4722 67.2636 35.9897 67.0133C36.5011 66.3033 36.7998 65.4613 36.8453 64.5666C36.8837 63.812 36.7369 63.0522 36.4133 62.3691C36.162 61.8386 35.8014 61.4013 35.4116 60.9695C35.0059 60.5205 34.5258 60.1628 33.9966 59.9077C34.8062 58.2664 34.5883 56.225 33.2891 54.7864L33.0352 54.5053C32.2119 53.5938 31.0828 53.0574 29.8562 52.995C29.4403 52.9733 29.0306 53.0086 28.6345 53.095C28.4503 52.3927 28.1002 51.7397 27.5995 51.1853L27.3456 50.9042C26.5223 49.9927 25.3933 49.4563 24.1667 49.3939C23.2219 49.345 22.3073 49.5838 21.5203 50.0714L25.8117 42.0006C25.8431 43.4794 26.5417 44.8878 27.7112 45.7949C28.7866 46.6288 30.2881 47.05 31.6334 46.7414L39.9753 44.8328L61.1322 55.8578C61.5417 56.0709 61.8839 56.2714 62.1075 56.6969C62.3447 57.1477 62.3667 57.6872 62.17 58.1566Z" fill="#141720"/>
<path d="M71.7805 41.5645C72.6434 41.5645 73.343 40.865 73.343 40.002C73.343 39.1391 72.6434 38.4395 71.7805 38.4395C70.9175 38.4395 70.218 39.1391 70.218 40.002C70.218 40.865 70.9175 41.5645 71.7805 41.5645Z" fill="#141720"/>
<path d="M10.425 54.1383C11.2879 54.1383 11.9875 53.4388 11.9875 52.5758C11.9875 51.7129 11.2879 51.0133 10.425 51.0133C9.56204 51.0133 8.86249 51.7129 8.86249 52.5758C8.86249 53.4388 9.56204 54.1383 10.425 54.1383Z" fill="#141720"/>
</svg>
